<svg width="124" height="16" viewBox="0 0 124 16" fill="none" xmlns="http://www.w3.org/2000/svg">
<path d="M0 1.12758H13.594V3.63393H0V1.12758ZM5.48247 3.31732H8.13518V15.7307H5.48247V3.31732Z" fill="black"/>
<path d="M22.8032 12.0052H25.3143C25.2081 12.7716 24.9248 13.4581 24.4675 14.0588C24.0101 14.6595 23.3875 15.1359 22.6026 15.4822C21.8177 15.8284 20.8616 16 19.7315 16C18.4686 16 17.3532 15.7692 16.3824 15.3105C15.4116 14.8518 14.6533 14.186 14.1104 13.3131C13.5645 12.4402 13.293 11.3868 13.293 10.1528C13.293 8.91886 13.5586 7.86247 14.0897 6.98066C14.6208 6.10181 15.3615 5.42711 16.3116 4.95957C17.2618 4.49203 18.3742 4.26122 19.6519 4.26122C20.9295 4.26122 22.036 4.49499 22.9006 4.95957C23.7652 5.42711 24.4055 6.12842 24.8245 7.06941C25.2435 8.0104 25.4176 9.20885 25.3527 10.6707H15.9044C15.9693 11.2418 16.1611 11.7626 16.4739 12.2271C16.7867 12.6947 17.2116 13.0616 17.7486 13.3338C18.2857 13.6061 18.9289 13.7392 19.6725 13.7392C20.4958 13.7392 21.1833 13.5765 21.7351 13.2539C22.2869 12.9314 22.6409 12.5142 22.8003 12.0022L22.8032 12.0052ZM19.5338 6.49832C18.5778 6.49832 17.7988 6.73502 17.2027 7.20848C16.6037 7.68194 16.2201 8.26489 16.0461 8.95732H22.7826C22.7147 8.20571 22.4019 7.60799 21.8354 7.16412C21.2689 6.72026 20.5017 6.49832 19.5338 6.49832Z" fill="black"/>
<path d="M30.4781 0V12.8425C30.4781 13.3248 30.4574 13.8397 30.4191 14.3901C30.3807 14.9405 30.3394 15.3873 30.2981 15.7336H27.8873V0.00296199H30.4781V0ZM35.1226 15.9792C34.2462 15.9792 33.4937 15.8016 32.8711 15.4495C32.2456 15.0974 31.741 14.6298 31.3574 14.0498C30.9709 13.4698 30.6876 12.8396 30.5017 12.1531C30.3158 11.4695 30.2214 10.7948 30.2214 10.132C30.2214 9.30342 30.3099 8.53704 30.4899 7.82981C30.6699 7.12259 30.9502 6.50116 31.3368 5.96852C31.7233 5.43589 32.2279 5.0157 32.8505 4.71683C33.476 4.415 34.2314 4.26408 35.1226 4.26408C36.1465 4.26408 37.0523 4.50968 37.8431 4.99793C38.6339 5.48618 39.2595 6.16678 39.7168 7.03972C40.1742 7.91265 40.4044 8.94241 40.4044 10.132C40.4044 11.3215 40.1712 12.3099 39.705 13.1917C39.2388 14.0735 38.6074 14.7571 37.8107 15.2453C37.014 15.7336 36.1169 15.9792 35.1196 15.9792H35.1226ZM34.2875 13.7214C34.9927 13.7214 35.6035 13.5704 36.1229 13.2716C36.6422 12.9697 37.0435 12.5525 37.3297 12.0199C37.6159 11.4872 37.7576 10.8569 37.7576 10.1349C37.7576 9.0519 37.4566 8.17897 36.8517 7.51613C36.2468 6.85329 35.394 6.52187 34.2904 6.52187C33.5203 6.52187 32.8475 6.6639 32.278 6.95093C31.7056 7.23796 31.263 7.64633 30.9532 8.18193C30.6404 8.71752 30.484 9.36556 30.484 10.1349C30.484 10.8422 30.6374 11.4665 30.9413 12.0081C31.2453 12.5496 31.6849 12.9697 32.2574 13.2716C32.8298 13.5734 33.5055 13.7214 34.2904 13.7214H34.2875Z" fill="black"/>
<path d="M47.3445 15.9792C46.3619 15.9792 45.4678 15.7336 44.6622 15.2453C43.8567 14.7571 43.2193 14.0706 42.7472 13.1917C42.2751 12.3129 42.0391 11.292 42.0391 10.132C42.0391 8.97203 42.2781 7.91269 42.7561 7.03975C43.2341 6.16682 43.8833 5.48622 44.7006 4.99797C45.518 4.50971 46.4445 4.26411 47.4802 4.26411C48.6222 4.26411 49.5428 4.52452 50.2421 5.04236C50.9385 5.5602 51.4489 6.26447 51.7676 7.1522C52.0863 8.03993 52.2456 9.03417 52.2456 10.132C52.2456 10.7948 52.1512 11.4666 51.9653 12.1531C51.7794 12.8396 51.4932 13.4699 51.1067 14.0499C50.7201 14.6298 50.2155 15.0974 49.5929 15.4495C48.9674 15.8017 48.2179 15.9792 47.3415 15.9792H47.3445ZM48.1795 13.7214C48.9644 13.7214 49.6402 13.5705 50.2126 13.2716C50.785 12.9698 51.2217 12.5496 51.5286 12.0081C51.8355 11.4666 51.986 10.8422 51.986 10.135C51.986 9.36856 51.8296 8.71756 51.5168 8.18196C51.204 7.64932 50.7644 7.24097 50.2008 6.96281C49.6342 6.68466 48.9615 6.54557 48.1766 6.54557C47.073 6.54557 46.2173 6.87405 45.6065 7.52801C44.9957 8.18198 44.6888 9.05193 44.6888 10.135C44.6888 10.857 44.8334 11.4843 45.1285 12.0199C45.4206 12.5555 45.8307 12.9727 46.353 13.2716C46.8783 13.5734 47.4861 13.7214 48.1766 13.7214H48.1795ZM51.9889 4.51267H54.5797V15.7306H52.1689C52.1011 15.1447 52.0568 14.6239 52.0302 14.1741C52.0037 13.7214 51.9889 13.2805 51.9889 12.8426V4.51267Z" fill="black"/>
<path d="M57.3091 15.7306V0H59.8999V15.7306H57.3091ZM66.182 15.7306V9.56977C66.182 8.95427 66.0876 8.44233 65.9017 8.03397C65.7158 7.62858 65.4207 7.32083 65.0135 7.10777C64.6092 6.89768 64.0663 6.79116 63.3876 6.79116C62.709 6.79116 62.1454 6.93022 61.6142 7.20837C61.0831 7.48653 60.6494 7.84755 60.3189 8.29141C59.9854 8.73528 59.7995 9.20578 59.7612 9.70291L59.7405 8.4601C59.8054 7.96297 59.9589 7.46583 60.1979 6.97166C60.4369 6.47453 60.7556 6.02473 61.1539 5.61637C61.5523 5.21098 62.0332 4.88253 62.5998 4.63397C63.1634 4.3854 63.7978 4.26112 64.503 4.26112C65.1138 4.26112 65.6804 4.34693 66.1967 4.52152C66.7161 4.69611 67.1675 4.96241 67.5511 5.32342C67.9377 5.68443 68.2357 6.13127 68.4481 6.66687C68.6606 7.20247 68.7668 7.82979 68.7668 8.55182V15.7306H66.1761H66.182Z" fill="black"/>
<path d="M89.2451 1.12758V3.63393H79.3188V7.56067H87.451V9.90722H79.3188V15.7307H76.669V1.12758H89.248H89.2451Z" fill="black"/>
<path d="M90.502 4.51274H93.0928V15.7307H90.502V4.51274ZM96.8992 6.92738C96.1556 6.92738 95.5094 7.09013 94.9665 7.41268C94.4206 7.73522 93.9839 8.13174 93.6505 8.59632C93.317 9.06386 93.0839 9.51363 92.9541 9.95157L92.9335 8.70877C92.9453 8.52826 92.9984 8.26192 93.0928 7.90682C93.1842 7.55469 93.3259 7.17004 93.5118 6.75576C93.6977 6.34149 93.9426 5.942 94.2495 5.56028C94.5564 5.17559 94.9282 4.86487 95.3649 4.62223C95.8045 4.38254 96.315 4.26122 96.8992 4.26122V6.92738Z" fill="black"/>
<path d="M107.725 12.0052H110.236C110.13 12.7716 109.847 13.4581 109.39 14.0588C108.932 14.6595 108.31 15.1359 107.525 15.4822C106.74 15.8284 105.784 16 104.654 16C103.391 16 102.275 15.7692 101.305 15.3105C100.334 14.8518 99.5754 14.186 99.0325 13.3131C98.4866 12.4402 98.2151 11.3868 98.2151 10.1528C98.2151 8.91886 98.4807 7.86247 99.0119 6.98066C99.543 6.10181 100.284 5.42711 101.234 4.95957C102.184 4.49203 103.296 4.26122 104.574 4.26122C105.852 4.26122 106.958 4.49499 107.823 4.95957C108.687 5.42711 109.328 6.12842 109.747 7.06941C110.166 8.0104 110.34 9.20885 110.275 10.6707H100.827C100.894 11.2418 101.083 11.7626 101.396 12.2271C101.709 12.6947 102.134 13.0616 102.671 13.3338C103.208 13.6061 103.851 13.7392 104.595 13.7392C105.418 13.7392 106.105 13.5765 106.657 13.2539C107.209 12.9314 107.563 12.5142 107.722 12.0022L107.725 12.0052ZM104.456 6.49832C103.5 6.49832 102.721 6.73502 102.125 7.20848C101.526 7.68194 101.142 8.26489 100.968 8.95732H107.705C107.637 8.20571 107.324 7.60799 106.758 7.16412C106.191 6.72026 105.424 6.49832 104.456 6.49832Z" fill="black"/>
<path d="M121.437 12.0052H123.948C123.842 12.7716 123.559 13.4581 123.102 14.0588C122.644 14.6595 122.022 15.1359 121.237 15.4822C120.452 15.8284 119.496 16 118.366 16C117.103 16 115.987 15.7692 115.017 15.3105C114.046 14.8518 113.287 14.186 112.744 13.3131C112.199 12.4402 111.927 11.3868 111.927 10.1528C111.927 8.91886 112.193 7.86247 112.724 6.98066C113.255 6.09885 113.996 5.42711 114.946 4.95957C115.896 4.49203 117.008 4.26122 118.286 4.26122C119.564 4.26122 120.67 4.49499 121.535 4.95957C122.399 5.42711 123.04 6.12842 123.459 7.06941C123.878 8.0104 124.052 9.20885 123.987 10.6707H114.539C114.603 11.2418 114.795 11.7626 115.108 12.2271C115.421 12.6947 115.846 13.0616 116.383 13.3338C116.92 13.6061 117.563 13.7392 118.307 13.7392C119.13 13.7392 119.817 13.5765 120.369 13.2539C120.921 12.9314 121.275 12.5142 121.434 12.0022L121.437 12.0052ZM118.171 6.49832C117.215 6.49832 116.436 6.73502 115.84 7.20848C115.241 7.68194 114.857 8.26489 114.683 8.95732H121.42C121.352 8.20571 121.036 7.60799 120.472 7.16412C119.906 6.72026 119.139 6.49832 118.171 6.49832Z" fill="black"/>
</svg>
